# xmcd
#
# Track frame offsets:
#	150
#	16030
#	31327
#	49297
#	64552
#	76915
#	89490
#	105192
#	121217
#	136865
#	155207
#	169045
#
# Disc length: 2451 seconds
#
# Revision: 0
# Processed by: cddbd v1.5.2PL0 Copyright (c) Steve Scherf et al.
# Submitted via: SynApp - FreeCDDB Version: 2.5
#
DISCID=8b09910c
DTITLE=Juice on The Loose - Secret Life
DYEAR=1987
DGENRE=Blues
TTITLE0=That`s Nothing
TTITLE1=Judgement Day
TTITLE2=Grounded
TTITLE3=It`s Over
TTITLE4=Sky dive
TTITLE5=You took me by surprise
TTITLE6=Secret life
TTITLE7=Glad times bad times
TTITLE8=Overtime
TTITLE9=What can i do
TTITLE10=Roomful of blues
TTITLE11=Yeovil
EXTD=
EXTT0=
EXTT1=
EXTT2=
EXTT3=
EXTT4=
EXTT5=
EXTT6=
EXTT7=
EXTT8=
EXTT9=
EXTT10=
EXTT11=
PLAYORDER=
